<svg id="Layer_1" data-name="Layer 1" xmlns="http://www.w3.org/2000/svg" viewBox="0 0 217.87 259.39"><defs><style>.cls-1,.cls-4,.cls-8{fill:#cca951;}.cls-2{fill:#fff;}.cls-3{fill:none;stroke:#cca951;stroke-miterlimit:10;stroke-width:3px;}.cls-4{font-size:29.12px;}.cls-4,.cls-8{font-family:ArialRoundedMTBold, Arial Rounded MT Bold;}.cls-5{letter-spacing:-0.01em;}.cls-6{letter-spacing:0em;}.cls-7{letter-spacing:-0.06em;}.cls-8{font-size:10.92px;}.cls-9{letter-spacing:-0.01em;}.cls-10{letter-spacing:-0.06em;}</style></defs><circle cx="639" cy="453.9" r="96.4" transform="translate(-445.52 656.95) rotate(-80.78)"/><path class="cls-1" d="M639,360a93.91,93.91,0,1,1-93.9,93.9A94,94,0,0,1,639,360m0-5a98.91,98.91,0,1,0,98.91,98.9A98.9,98.9,0,0,0,639,355Z" transform="translate(-534.13 -355)"/><ellipse cx="104.66" cy="98.76" rx="88.51" ry="91.38"/><path class="cls-1" d="M638.78,363.38c48.26,0,87.51,40.54,87.51,90.38S687,544.13,638.78,544.13s-87.51-40.54-87.51-90.37,39.26-90.38,87.51-90.38m0-2c-49.43,0-89.51,41.36-89.51,92.38s40.08,92.37,89.51,92.37,89.51-41.36,89.51-92.37-40.07-92.38-89.51-92.38Z" transform="translate(-534.13 -355)"/><path class="cls-2" d="M599.5,419.18l.28.29.29-.29Zm10.46,0,.28.29.29-.29Zm10.46,0,.28.29.29-.29Zm2.31,0Zm.61,34.14v.6l.29-.29Zm.4,69.34h0Zm6.64-103.48Zm.11,20.56v.42h.41Zm1,22.09H631l.41.42Zm0,4.45-.41.41h.41Zm0,6.39h-.41l.42.42Zm0,4.58-.41.42h.41Zm-.15,45.41h0Zm7.21-74.58-.29.29.29.31Zm.43,74.58h0Zm.91-72.6.28.28.3-.28Zm.58,0v.41h.4Zm5.39,12v.41l.4-.42Zm0,4.38v.43h.41Zm0,6.6v.41l.4-.41Zm0,4.24v.43h.41Zm.67,45.41h0Zm.15-72.19h.4v-.41Zm7.09,3.15,0,0-.25.26.29.29Zm3.74-3.85-.28.29h.57Zm8.82-30.59.29.29.28-.29Zm10.73,0,.29.29.27-.29Z" transform="translate(-534.13 -355)"/><path class="cls-1" d="M638.72,469.76v.09l0-.05Zm0,0v.09l0-.05Zm0,0v.09l0-.05Zm0,0v.09l0-.05Zm0,0v.09l0-.05Zm0,0v.09l0-.05Zm-7.22,2.91h-.41l0-6h.41v-1l-.71.71-.11.12v1.18l0,3.95v1.2l.12.11.71.73v-1Zm7.22-2.91v.09l0-.05Zm8.06,2.24,0-4.14v-1.2l-.11-.11-.71-.73v1h.41l0,6.17H646v1l.7-.72.12-.12V472Zm7.53-18.8-.41.42,0,0-.25.26.29.29L649.22,459l-2.91,3h-.41v1l.81-.84,2.5-2.57.57-.59,3.71-3.83.7-.71.12-.12V453.2Zm.4,69.46v-.41l0-6.89v-.83H647l0-6.9v-.82l0-6.89v-.83l0-6.89v-3.86l0-9.65V477.5l-.11-.11-.71-.73v1h.41l.06,10.83,0,3.27.09,15.44,0,7.72h7.64l0,7.72H623.74l0-7.72h7.64l-.05-7.72,0-7.72,0-7.72v-3.13l-.07-11h.41v-1l-.7.72-.12.12v1.18l0,9.81h0v3.71l0,6.89v.83l0,6.89v.82l0,6.9h-7.64v.83l0,6.89v.82h31.38Zm-16-52.9v.09l0-.05Zm27.57-51-.12.12-.28.29-.81.82-6.29,6.48-.12.13-.68.7h10.73L662,434.2l-.8.83-6.69,6.9-.28.28-.52.54-.29.3-4.35,4.48-.58.59L647,449.64l-.38.4-.43.43-.39.41-2,2-2.38-2.45-.68-.7-.12-.13H639v-1.72l-.12-.12-.39-.4-.31-.33-4.2-4.32-.27-.28-.53-.54,0-.06L631.31,440l-.82-.85-4-4.12-.8-.83-2.06-2.12,0-4.77h7.64v-.83l0-6.89v-.82h-53l.68.7.12.12,6.69,6.89.68.71.12.12h10.46l6.69,6.89.8.83,6.7,6.9.8.82,6.69,6.89.8.83,2.68,2.76.28.29.3.3.25-.26v.53l.11.12.71.73,3.7,3.82.58.59,2.58,2.66.82.85v-1H631l-3-3.08-4.69-4.84.29-.29-.3-.31v-.77l-.66.68-3.09-3.17-7.49-7.72-7.5-7.73-7.49-7.71H586.66l-7.5-7.72H599.5l.28.29.29-.29H610l.28.29.29-.29h9.89l.28.29.29-.29h9.79l.05,7.72h-7.64l0,5.35,2.3,2.36,5,5.13v.42h.41l2.11,2.18.12.12L638.5,448l.09.09-.29.29.29.31v1.38h1.33l.28.28.3-.28v.41h.4l3,3,2.39-2.46.56-.58h.4v-.41l1.88-1.94,4.76-4.9.85-.88,7.5-7.73,7.49-7.71H659l7.49-7.72.29.29.28-.29h10.16l.29.29.27-.29h20.88l-7.49,7.72H680.41l-7.49,7.71-7.49,7.73-7.5,7.72-.29-.29-.28.29-.4.41h1.15l.12-.13.67-.7,6.7-6.89.8-.82,6.69-6.9.8-.83,6.69-6.89h10.73l.12-.12.68-.71,6.7-6.89.12-.12.68-.7Zm-27.57,51.08,0-.05,0,0Zm0-.09v.09l0-.05Zm0,0v.09l0-.05Zm0,0v.09l0-.05Zm0,0v.09l0-.05Zm0,0v.09l0-.05Zm0,0v.09l0-.05Z" transform="translate(-534.13 -355)"/><path class="cls-1" d="M677.75,419.18l-.27.29-.29-.29H667l-.28.29-.29-.29L659,426.9h10.72l-7.49,7.71-7.5,7.73-.85.88-4.76,4.9-1.88,1.94v.41h-.4l-.56.58-2.39,2.46-3-3h-.4v-.41l-.3.28-.28-.28H638.6v-1.38l-.29-.31.29-.29-.09-.09-5.37-5.53-.12-.12-2.11-2.18h-.41v-.42l-5-5.13-2.3-2.36,0-5.35h7.64l-.05-7.72H621l-.29.29-.28-.29h-9.89l-.29.29-.28-.29h-9.89l-.29.29-.28-.29H579.16l7.5,7.72h10.45l7.49,7.71,7.5,7.73,7.49,7.72,3.09,3.17.66-.68v.77l.3.31-.29.29,4.69,4.84,3,3.08h.41v1l0,2.83v1h-.41l0,6h.41v1l0,3v1h-.41l.07,11v3.13l0,7.72,0,7.72.05,7.72H623.7l0,7.72H654.3l0-7.72h-7.64l0-7.72-.09-15.44,0-3.27-.06-10.83H646v-1l0-2.65v-1h.41l0-6.17h-.41v-1h0V462h.41l2.91-3,4.69-4.83-.29-.29.25-.26,0,0,.41-.42h0l.14-.14,2.51-2.59.4-.41.28-.29.29.29,7.5-7.72,7.49-7.73,7.49-7.71h10.73l7.49-7.72Zm-39,50.67v-.09l0,0Z" transform="translate(-534.13 -355)"/><path class="cls-3" d="M541.28,452.84c-38-52.44,125.67-12.27,183.51-59.19,5.26-4.26,7-13.32,2.82-18.08-3.86-4.43-9.54,6.51.36,5.94" transform="translate(-534.13 -355)"/><text class="cls-4" transform="translate(6.75 231.26)"><tspan class="cls-5">Y</tspan><tspan class="cls-6" x="17.82" y="0">ONO DIGI</tspan><tspan class="cls-7" x="156.22" y="0">T</tspan><tspan x="172.59" y="0">AL</tspan></text><text class="cls-8" transform="translate(38.33 257.09)"><tspan class="cls-9">Y</tspan><tspan x="6.68" y="0">OUR STYLE , </tspan><tspan class="cls-9" x="77.91" y="0">Y</tspan><tspan x="84.6" y="0">OUR W</tspan><tspan class="cls-10" x="122.37" y="0">A</tspan><tspan x="129.54" y="0">Y </tspan></text></svg>